<svg xmlns="http://www.w3.org/2000/svg">
<defs>
<symbol id="icon-face" viewBox="0 0 76 112">
<path d="m 13.737442,111.563 c -0.0036,-0.21828 0.111313,-1.11125 0.255323,-1.98437 0.57948,-3.51336 0.821048,-11.194753 0.526966,-16.756553 -0.516554,-9.76925 -0.896779,-12.76617 -2.034117,-16.03289 l -1.006708,-2.89152 -1.6381077,-0.32984 c -0.90096,-0.18141 -2.062901,-0.53141 -2.582092,-0.77779 -1.007425,-0.47805 -2.983595,-2.7486 -3.192219,-3.66774 -0.188109,-0.82877 -0.610393,-3.46001 -0.938171,-5.84576 -0.358897,-2.61223 -0.505962,-3.1351 -1.676378,-5.96016 -1.03787697,-2.50516 -1.66893697,-5.56375 -1.38299397,-6.70304 0.10268,-0.4091 0.488977,-1.04611 0.85844,-1.41558 0.57495097,-0.57495 0.83247697,-0.64971 1.78713997,-0.51887 0.613465,0.0841 1.339037,0.23871 1.612383,0.3436 0.41567,0.15951 0.460715,0.10743 0.275291,-0.31824 -0.554194,-1.27225 -1.425771,-5.25105 -1.693131,-7.72923 -0.418046,-3.8749 -0.370365,-10.65934 0.09361,-13.31998 2.195458,-12.589689 9.4974817,-21.412091 20.9762207,-25.34375 12.411303,-4.251076 27.525155,-2.52377 37.109385,4.241095 6.64805,4.692413 10.73997,11.712396 12.31395,21.125465 0.80008,4.78484 0.2713,12.01785 -1.31136,17.93776 l -0.37136,1.38906 h 0.79594 c 1.05259,0 2.14352,1.17727 2.62398,2.83166 0.50499,1.73888 0.43257,6.34559 -0.13641,8.67771 -0.24853,1.01865 -0.50025,2.62599 -0.55937,3.57188 -0.0591,0.94589 -0.16866,2.69969 -0.2434,3.89735 -0.14049,2.25107 -0.52674,3.53305 -1.37532,4.56473 -1.45499,1.76891 -2.84605,2.65042 -4.18249,2.65042 -0.47772,0 -0.69858,0.1676 -0.7845,0.59531 -1.48149,7.37508 -2.37828,10.27178 -4.40281,14.22136 -1.25625,2.45078 -1.29528,2.59813 -1.56305,5.90139 -0.49226,6.07248 -0.32634,13.208543 0.39427,16.957173 0.13239,0.68866 0.10732,0.97433 -0.0756,0.86129 -0.8115,-0.50153 -1.2263,-9.34135 -0.79646,-16.972983 l 0.19374,-3.43958 -0.59061,0.77173 c -3.0976,4.04751 -5.04153,5.76611 -8.26353,7.30561 -7.21825,3.448963 -17.616192,3.430873 -24.73854,-0.0431 -1.946148,-0.94923 -2.63647,-1.49271 -5.12699,-4.03644 -3.342283,-3.41369 -5.37182,-6.36575 -7.190788,-10.45937 -0.709872,-1.59757 -1.337633,-2.85772 -1.395029,-2.80033 -0.05739,0.0574 0.05557,1.9862 0.251026,4.28623 0.710798,8.36421 0.357458,23.526693 -0.587629,25.216243 -0.197331,0.35278 -0.222723,0.35278 -0.228513,0 z M 44.040033,97.785507 c 3.48369,-0.48454 6.79468,-1.60088 12.97554,-4.37489 0.1611,-0.0723 0.44344,0.23194 0.62741,0.67609 0.18397,0.44415 0.41919,0.80754 0.5227,0.80754 0.48821,0 3.97253,-5.03413 5.28639,-7.63775 1.23974,-2.45676 2.81538,-7.37525 3.52877,-11.01537 l 0.62223,-3.175 1.20179,-0.30069 c 1.69802,-0.42485 2.13477,-0.70655 3.35487,-2.16382 1.26732,-1.51368 1.50833,-2.43187 1.74906,-6.66362 0.0952,-1.67349 0.4176,-4.21115 0.71644,-5.63924 1.05943,-5.06277 0.3513,-10.06167 -1.52645,-10.77558 -1.03247,-0.39255 -1.12178,-0.32522 -0.97932,0.73826 0.10849,0.80987 0.007,1.12839 -0.55434,1.73342 -0.65199,0.7032 -0.68726,0.88824 -0.68726,3.60563 0,2.18505 -0.0914,2.94022 -0.38528,3.18415 -0.67229,0.55795 -0.93674,0.0328 -0.96894,-1.92423 -0.0386,-2.34551 -0.26204,-3.41008 -0.6616,-3.15209 -0.16282,0.10513 -0.59643,0.78645 -0.96359,1.51406 -1.09902,2.17796 -1.64952,2.46775 -6.01642,3.16717 -2.69495,0.43163 -10.54005,0.53259 -12.77833,0.16445 -2.0806,-0.34222 -3.8468,-2.59199 -4.96509,-6.32451 -0.1858,-0.62014 -0.60963,-1.42082 -0.94186,-1.7793 -0.53256,-0.57465 -0.82618,-0.65177 -2.48139,-0.65177 -1.694319,0 -1.941149,0.0688 -2.531769,0.70613 -0.359931,0.38837 -0.842756,1.37064 -1.072944,2.18281 -0.552484,1.94935 -2.015053,4.56775 -3.027079,5.41932 -0.44645,0.37566 -1.488422,0.89241 -2.315488,1.14832 -3.030363,0.93766 -15.384222,0.37626 -17.241301,-0.7835 -0.269912,-0.16857 -0.757666,-0.87636 -1.083897,-1.57288 -0.819206,-1.74903 -1.446565,-2.23494 -3.286896,-2.54577 -0.8731247,-0.14747 -1.6145967,-0.24302 -1.6477157,-0.21235 -0.03312,0.0307 0.353835,1.21424 0.859896,2.63014 1.0228337,2.86176 1.0995097,3.34653 0.529337,3.34653 -0.571019,0 -1.049391,-0.88202 -2.008988,-3.70417 -1.216103,-3.57652 -2.978598,-5.29166 -5.437757,-5.29166 -1.410326,0 -1.95206297,0.7418 -1.95206297,2.67295 0,1.70583 1.14918197,5.65715 2.13187397,7.33019 0.282677,0.48126 0.518113,1.25517 0.52319,1.71979 0.0051,0.46463 0.194776,1.79727 0.421553,2.96144 0.226777,1.16417 0.504502,2.85691 0.617167,3.76166 0.163459,1.31265 0.4051,1.90758 1.196072,2.94477 1.216328,1.59496 2.377967,2.25791 4.7026837,2.68384 l 1.787332,0.32747 0.430781,1.49113 c 0.697138,2.41313 2.842917,7.90823 4.154461,10.63912 1.518505,3.16183 3.448511,6.11763 4.960464,7.59695 1.234279,1.20763 1.28105,1.2035 2.078927,-0.18391 0.177528,-0.3087 0.368065,-0.27716 1.115155,0.18457 6.068775,3.7507 13.157018,5.40553 19.421675,4.5342 z M 31.553418,56.284787 c 2.282997,-0.54181 4.386864,-3.87692 4.606717,-7.30271 l 0.126772,-1.97539 -0.903224,-0.37739 c -3.105063,-1.29738 -15.999466,-1.33609 -19.708713,-0.0592 -1.38938,0.4783 -1.674,1.17026 -1.678622,4.08106 -0.0062,3.88152 0.620847,4.82177 3.588525,5.38124 3.934706,0.74178 11.34236,0.87561 13.968545,0.25236 z m 30.857785,-0.98246 c 2.25825,-0.45528 3.27493,-0.96249 4.07338,-2.03217 0.47716,-0.63925 0.5693,-1.19048 0.64399,-3.85277 0.0998,-3.55602 0.12025,-3.51605 -2.09779,-4.09377 -4.6839,-1.22001 -16.83043,-0.43732 -19.40634,1.25049 -0.87719,0.57475 -0.87641,1.45716 0.004,4.08807 0.80014,2.39203 2.04204,4.44893 2.83884,4.70182 2.16182,0.68614 10.41614,0.64963 13.94428,-0.0617 z m -51.116084,-5.25143 c -0.06482,-1.235 -0.177012,-2.3046 -0.249312,-2.3769 -0.261003,-0.261 -4.8626177,1.17858 -5.1874947,1.62288 -0.460377,0.6296 -0.437928,0.70141 0.473021,1.51307 0.705101,0.62825 2.881418,1.29968 4.7177307,1.45551 0.291055,0.0247 0.340315,-0.41866 0.246055,-2.21456 z m 60.139594,-0.36993 c 0.66675,-0.83894 0.63331,-1.67024 -0.0938,-2.33253 -0.579,-0.52738 -1.59858,-1.13752 -1.90083,-1.13752 -0.0823,0 -0.14969,1.13782 -0.14969,2.5285 v 2.5285 l 0.82144,-0.47798 c 0.45178,-0.26289 1.0471,-0.76193 1.32291,-1.10897 z M 11.10822,47.264287 c 0.776869,-0.14733 1.83293,-0.55533 2.346796,-0.90667 2.393775,-1.63663 10.261126,-2.12674 21.263764,-1.32465 l 6.571123,0.47903 4.01221,-0.71825 c 5.0921,-0.91158 8.35377,-1.21563 13.00804,-1.21261 4.46091,0.003 7.48107,0.48379 8.82422,1.40504 0.53095,0.36418 1.27659,0.73804 1.65697,0.8308 0.93977,0.22917 0.99232,-0.041 1.18433,-6.08835 l 0.15962,-5.02709 -0.92154,-3.59902 c -1.79488,-7.009876 -3.83067,-11.017491 -7.46048,-14.686539 -2.55996,-2.587636 -4.63391,-3.823759 -7.94103,-4.733058 -2.49072,-0.684823 -7.61105,-0.804513 -11.7702,-0.275133 -3.072279,0.391042 -3.973755,0.408539 -6.645938,0.129001 -4.369935,-0.457142 -10.594777,-0.20602 -13.333865,0.537911 -7.754779,2.10619 -12.7810507,7.594849 -14.9056077,16.276838 -1.704288,6.96457 -1.803175,11.31557 -0.406853,17.90144 l 0.429641,2.02644 1.258154,-0.37363 c 0.691984,-0.2055 1.8937727,-0.49417 2.6706457,-0.6415 z" />
</symbol></defs></svg>
